# WaveFront *.obj file (generated by Autodesk ATF)

mtllib Inclined Plane.mtl

g Solid1

v 0.000000 0.000000 0.000000
v 0.000000 8.000000 0.000000
v 0.000000 8.000000 29.999999
v 24.000000 0.000000 0.000000
v 24.000000 8.000000 0.000000
v 24.000000 8.000000 29.999999
vt -0.000000 60.959999 0.000000
vt -78.862808 60.959999 0.000000
vt -78.862808 0.000000 0.000000
vt -0.000000 0.000000 0.000000
vt 20.320000 0.000000 0.000000
vt 0.000000 76.199997 0.000000
vt 0.000000 0.000000 0.000000
vt 0.000000 0.000000 0.000000
vt 60.959999 0.000000 0.000000
vt 60.959999 76.199997 0.000000
vt 0.000000 76.199997 0.000000
vt 20.320000 76.199997 0.000000
vt 0.000000 0.000000 0.000000
vt 20.320000 0.000000 0.000000
vt -30.480000 -10.160000 0.000000
vt 30.480000 -10.160000 0.000000
vt 30.480000 10.160000 0.000000
vt -30.480000 10.160000 0.000000
vn 0.000000 -2.454237 0.654463
vn 0.000000 -2.454237 0.654463
vn 0.000000 -2.454237 0.654463
vn 0.000000 -2.454237 0.654463
vn -2.540000 0.000000 0.000000
vn -2.540000 0.000000 0.000000
vn -2.540000 0.000000 0.000000
vn 0.000000 2.540000 0.000000
vn 0.000000 2.540000 0.000000
vn 0.000000 2.540000 0.000000
vn 0.000000 2.540000 0.000000
vn 2.540000 0.000000 0.000000
vn 2.540000 0.000000 0.000000
vn 2.540000 0.000000 0.000000
vn 0.000000 0.000000 -2.540000
vn 0.000000 0.000000 -2.540000
vn 0.000000 0.000000 -2.540000
vn 0.000000 0.000000 -2.540000
usemtl 191,191,191
f 3/1/1 1/2/2 6/4/4
f 6/4/4 1/2/2 4/3/3
f 1/5/5 3/6/6 2/7/7
f 5/8/8 2/9/9 6/11/11
f 6/11/11 2/9/9 3/10/10
f 6/12/12 4/13/13 5/14/14
f 4/15/15 1/16/16 5/18/18
f 5/18/18 1/16/16 2/17/17

# 6 vertices
# 18 texture params
# 18 normals
# 8 facets

# 1 groups
